<?xml version="1.0" encoding="utf-8"?>
<!-- Generator: Adobe Illustrator 18.1.1, SVG Export Plug-In . SVG Version: 6.00 Build 0)  -->
<!DOCTYPE svg PUBLIC "-//W3C//DTD SVG 1.1//EN" "http://www.w3.org/Graphics/SVG/1.1/DTD/svg11.dtd">
<svg version="1.1" id="_x32_" xmlns="http://www.w3.org/2000/svg" xmlns:xlink="http://www.w3.org/1999/xlink" x="0px" y="0px"
	 viewBox="0 0 512 512" style="enable-background:new 0 0 512 512;" xml:space="preserve">
<style type="text/css">
	.st0{fill:#4B4B4B;}
</style>
<g>
	<path class="st0" d="M119.854,336.7h107.946h13.398h13.402h140.062c8.365,0,16.113-4.39,20.426-11.56l0.008-0.008
		c0.007,0,0.007-0.008,0.007-0.008l0.208-0.346l-0.2,0.331c2.25-3.766,3.397-8.018,3.397-12.246c0-3.836-0.932-7.694-2.796-11.199
		L272.698,32.459c-2.088-3.943-5.211-7.131-8.858-9.296c-3.651-2.172-7.852-3.366-12.196-3.366c-1.914,0-3.855,0.231-5.777,0.708
		c-10.62,2.665-18.069,12.192-18.069,23.152v76.549c-6.781,0.847-13.055,4.606-16.978,10.582l-110.9,168.98
		c-2.596,3.959-3.912,8.518-3.912,13.07c0,3.89,0.958,7.794,2.861,11.33C103.036,331.894,111.089,336.685,119.854,336.7z
		 M254.598,143.868V55.504L389.74,309.906H254.598V143.868z M227.799,153.75v156.156H125.326L227.799,153.75z M119.854,312.84
		h-0.004l0.004,0.024l-8.73-5.738L119.854,312.84z"/>
	<path class="st0" d="M100.241,429.601c8.468-2.68,17.722-4.12,27.615-4.12c12.784,0,24.28,2.164,34.558,6.446
		c6.854,2.842,12.126,6.046,15.978,8.395l2.514,1.51c1.991,1.17,3.192,1.779,4.225,2.156c0.797,0.285,2.461,0.886,6.916,0.894
		c4.679-0.015,6.324-0.686,7.41-1.125c1.417-0.577,3.619-1.909,6.408-3.588l3.076-1.849c3.97-2.334,9.27-5.252,15.932-7.671
		c9.334-3.42,19.774-5.168,30.98-5.168c12.774,0,24.265,2.164,34.551,6.439c6.84,2.842,12.1,6.038,15.939,8.38l2.546,1.524
		c2.014,1.186,3.208,1.795,4.243,2.172c0.774,0.278,2.45,0.878,6.905,0.886c4.672-0.015,6.316-0.686,7.402-1.125
		c1.417-0.577,3.62-1.909,6.408-3.588l3.08-1.849c3.967-2.334,9.265-5.252,15.928-7.671c9.335-3.42,19.778-5.168,30.977-5.168
		c10.12,0,19.402,1.41,27.943,4.097c22.219-14.08,42.26-31.285,59.374-51.118c5.692-6.585,3.396-20.564-11.114-20.564
		c-11.568,0-127.548,0-174.202,0c-11.888,0-19.347,0-19.347,0h-20.972h-19.355c-46.658,0-162.626,0-174.194,0
		c-14.514,0-16.806,13.979-11.118,20.564C57.968,398.301,78.016,415.514,100.241,429.601z"/>
	<path class="st0" d="M488.956,452.884c-4.714,1.71-8.618,3.828-11.938,5.776c-5.006,2.972-8.664,5.391-12.693,7.032
		c-4.036,1.632-8.642,2.818-16.328,2.849c-6.824-0.015-11.244-0.986-14.964-2.318c-2.788-1.017-5.26-2.311-8.034-3.944
		c-4.136-2.403-8.988-5.73-15.681-8.51c-6.692-2.781-15.019-4.66-25.339-4.629c-9.172-0.016-16.759,1.44-23.044,3.743
		c-4.706,1.71-8.611,3.828-11.93,5.776c-5.006,2.972-8.672,5.391-12.693,7.032c-4.036,1.632-8.649,2.818-16.328,2.849
		c-6.824-0.015-11.237-0.986-14.957-2.318c-2.788-1.017-5.252-2.311-8.026-3.944c-4.136-2.403-8.98-5.73-15.673-8.51
		c-6.693-2.781-15.011-4.66-25.332-4.629c-9.173-0.016-16.759,1.44-23.044,3.743c-4.706,1.71-8.611,3.828-11.93,5.776
		c-5.006,2.972-8.672,5.391-12.692,7.032c-4.036,1.632-8.649,2.818-16.336,2.849c-6.824-0.015-11.237-0.986-14.949-2.318
		c-2.796-1.017-5.261-2.311-8.042-3.944c-4.128-2.403-8.973-5.73-15.673-8.51c-6.685-2.781-15.011-4.66-25.332-4.629
		c-9.173-0.016-16.759,1.44-23.044,3.743c-4.705,1.71-8.61,3.828-11.93,5.776c-5.006,2.972-8.672,5.391-12.692,7.032
		c-4.036,1.632-8.649,2.818-16.328,2.849c-6.824-0.015-11.237-0.986-14.958-2.318c-2.796-1.017-5.26-2.311-8.033-3.944
		c-4.136-2.403-8.981-5.73-15.681-8.51c-6.693-2.781-15.019-4.66-25.332-4.629v23.66c6.824,0.015,11.237,0.986,14.957,2.318
		c2.788,1.017,5.26,2.311,8.034,3.944c4.136,2.395,8.98,5.73,15.68,8.51c6.686,2.78,15.012,4.66,25.332,4.629
		c9.18,0.016,16.759-1.44,23.043-3.743c4.706-1.718,8.611-3.827,11.93-5.776c5.006-2.974,8.672-5.392,12.693-7.032
		c4.036-1.632,8.65-2.819,16.328-2.85c6.824,0.015,11.237,0.986,14.957,2.318c2.788,1.017,5.26,2.311,8.034,3.944
		c4.136,2.395,8.98,5.73,15.673,8.51c6.693,2.78,15.019,4.66,25.332,4.629c9.18,0.016,16.767-1.44,23.051-3.743
		c4.706-1.71,8.611-3.827,11.93-5.776c5.006-2.974,8.672-5.392,12.693-7.032c4.036-1.632,8.65-2.819,16.328-2.85
		c6.824,0.015,11.237,0.986,14.95,2.318c2.788,1.017,5.26,2.311,8.033,3.944c4.136,2.395,8.98,5.73,15.674,8.51
		c6.685,2.78,15.011,4.66,25.331,4.629c9.173,0.016,16.76-1.44,23.044-3.743c4.705-1.718,8.611-3.827,11.93-5.776
		c5.006-2.974,8.664-5.392,12.692-7.032c4.036-1.632,8.65-2.819,16.328-2.85c6.824,0.015,11.245,0.986,14.965,2.318
		c2.788,1.017,5.26,2.311,8.033,3.944c4.136,2.403,8.98,5.738,15.68,8.51c6.694,2.78,15.019,4.66,25.34,4.629
		c9.181,0.016,16.759-1.44,23.044-3.743c4.706-1.718,8.619-3.827,11.93-5.776c5.014-2.974,8.672-5.392,12.701-7.032
		c4.028-1.632,8.642-2.819,16.328-2.85v-23.66C502.819,449.125,495.241,450.581,488.956,452.884z"/>
</g>
</svg>
