<?xml version="1.0" encoding="utf-8"?>
<!-- Generator: Adobe Illustrator 18.1.1, SVG Export Plug-In . SVG Version: 6.00 Build 0)  -->
<!DOCTYPE svg PUBLIC "-//W3C//DTD SVG 1.1//EN" "http://www.w3.org/Graphics/SVG/1.1/DTD/svg11.dtd">
<svg version="1.1" id="_x32_" xmlns="http://www.w3.org/2000/svg" xmlns:xlink="http://www.w3.org/1999/xlink" x="0px" y="0px"
	 viewBox="0 0 512 512" style="enable-background:new 0 0 512 512;" xml:space="preserve">
<style type="text/css">
	.st0{fill:#4B4B4B;}
</style>
<g>
	<path class="st0" d="M299.354,83.039c0,22.956,0,50.041,0,64.456c0,5.49-0.798,11.638-2.745,17.707
		c-2.917,9.003-8.15,17.77-17.45,25.31h41.203l0.681-1.173c7.649-14.313,10.34-29.079,10.348-41.844c0-14.016,0-40.046,0-62.571
		c0-3.832,0-7.492,0-11.036l32.153-9.19l-13.437-47.022l-90.079,25.748l13.438,47.014L299.354,83.039z"/>
	<path class="st0" d="M350.56,208.931H155.542c-33.052,0-76.023,77.627-76.023,151.538S122.49,512,155.542,512H350.56
		c33.053,0,76.024-77.619,76.024-151.53S383.613,208.931,350.56,208.931z M122.607,382.964c-1.056-7.352-1.705-14.876-1.705-22.494
		c0-52.841,28.588-102.006,41.368-107.7h69.008v130.194H122.607z M383.495,382.964H267.318V252.77h76.516
		c12.78,5.694,41.367,54.859,41.367,107.7C385.2,368.088,384.552,375.612,383.495,382.964z"/>
	<polygon class="st0" points="458.447,27.734 450.524,0 376.073,21.274 383.996,49 	"/>
	
		<rect x="53.905" y="87.095" transform="matrix(0.9615 -0.2747 0.2747 0.9615 -22.2025 44.488)" class="st0" width="187.658" height="28.837"/>
</g>
</svg>
