<?xml version="1.0" encoding="utf-8"?>
<!-- Generator: Adobe Illustrator 18.1.1, SVG Export Plug-In . SVG Version: 6.00 Build 0)  -->
<!DOCTYPE svg PUBLIC "-//W3C//DTD SVG 1.1//EN" "http://www.w3.org/Graphics/SVG/1.1/DTD/svg11.dtd">
<svg version="1.1" id="_x32_" xmlns="http://www.w3.org/2000/svg" xmlns:xlink="http://www.w3.org/1999/xlink" x="0px" y="0px"
	 viewBox="0 0 512 512" style="enable-background:new 0 0 512 512;" xml:space="preserve">
<style type="text/css">
	.st0{fill:#4B4B4B;}
</style>
<g>
	<path class="st0" d="M148.464,215.417c28.138,0,50.939-22.792,50.948-50.935c-0.009-28.134-22.81-50.943-50.948-50.943
		c-28.143,0-50.94,22.809-50.944,50.943C97.524,192.624,120.322,215.417,148.464,215.417z M125.311,141.315l-0.004,0.009
		c5.968-5.95,14.076-9.587,23.158-9.595c9.082,0.008,17.19,3.644,23.162,9.595l-0.004-0.009c5.946,5.977,9.587,14.085,9.595,23.167
		c-0.008,9.074-3.649,17.19-9.595,23.158l0.004-0.008c-5.972,5.95-14.08,9.586-23.162,9.595c-9.082-0.009-17.19-3.645-23.158-9.595
		l0.004,0.008c-5.955-5.968-9.591-14.084-9.596-23.158C115.72,155.4,119.356,147.292,125.311,141.315z"/>
	<path class="st0" d="M506.78,204.212c0,0,0-0.009-0.008-0.009c0-0.009-0.005-0.009-0.005-0.009
		c-0.013-0.035-0.026-0.061-0.039-0.078l-0.004-0.008c-5.184-11.214-13.832-20.574-24.528-27.508
		c-10.687-6.933-23.38-11.606-37.808-14.242l-0.047-0.008l-0.148-0.027l-0.67-0.113c0,0,0,0-0.009,0L250.4,128.109l-0.096-0.017
		l-0.091-0.027l0.004,0.009c-1.526-0.235-3.044-0.34-4.55-0.34c-7.364,0-14.558,2.619-20.226,7.482
		c-0.004,0.008-0.004,0.008-0.009,0.017c-6.799,5.889-10.722,14.416-10.731,23.419v0.009v67.316h-97.524
		c-17.09,0.009-30.922,13.85-30.936,30.926v16.016H69.143V107.352c0-0.957-0.387-1.897-1.07-2.574
		c-0.679-0.679-1.614-1.07-2.571-1.07H3.636c-0.953,0-1.892,0.391-2.571,1.07C0.387,105.456,0,106.396,0,107.352v7.282v290.022
		c0,0.957,0.387,1.888,1.066,2.566c0.679,0.679,1.618,1.071,2.571,1.071h61.866c0.957,0,1.892-0.392,2.571-1.071
		c0.674-0.678,1.07-1.609,1.07-2.566v-62.592h372.262v62.592c0,0.957,0.386,1.888,1.061,2.566c0.679,0.679,1.614,1.071,2.576,1.071
		h63.323c0.952,0,1.897-0.392,2.57-1.071c0.679-0.678,1.066-1.609,1.066-2.566v-128.09c0,0,0-34.572,0-48.761
		C512,219.767,510.229,211.702,506.78,204.212z M493.805,390.102h-34.207v-66.229H50.948v66.229H18.195V121.906h32.753v169.212
		h442.857V390.102z M493.805,276.566H104.436v-19.662c0.004-3.523,1.418-6.663,3.732-8.994c2.328-2.314,5.468-3.732,9.009-3.732
		h115.719v-85.515c-0.017-3.646,1.649-7.282,4.42-9.648c2.288-1.984,5.32-3.089,8.351-3.089c0.605,0,1.206,0.053,1.805,0.139
		l193.023,34.094l0.548,0.087c12.601,2.296,22.954,6.236,31.248,11.622h0.004c8.235,5.333,14.415,12.249,17.952,19.939l0.004,0.018
		v0.008c2.362,5.098,3.558,10.605,3.554,15.972C493.805,241.994,493.805,276.566,493.805,276.566z"/>
</g>
</svg>
