<?xml version="1.0" encoding="utf-8"?>
<!-- Generator: Adobe Illustrator 18.1.1, SVG Export Plug-In . SVG Version: 6.00 Build 0)  -->
<!DOCTYPE svg PUBLIC "-//W3C//DTD SVG 1.1//EN" "http://www.w3.org/Graphics/SVG/1.1/DTD/svg11.dtd">
<svg version="1.1" id="_x32_" xmlns="http://www.w3.org/2000/svg" xmlns:xlink="http://www.w3.org/1999/xlink" x="0px" y="0px"
	 viewBox="0 0 512 512" style="enable-background:new 0 0 512 512;" xml:space="preserve">
<style type="text/css">
	.st0{fill:#4B4B4B;}
</style>
<g>
	<path class="st0" d="M491.617,95.732c-5.06-6.18-12.633-9.78-20.63-9.78h-347.33L111.83,45.336l-0.009-0.025
		c-5.425-18.177-20.334-31.939-38.884-35.912L30.48,0.297c-7.19-1.537-14.263,3.039-15.808,10.23
		c-1.546,7.182,3.039,14.271,10.222,15.808l42.466,9.101c9.034,1.935,16.301,8.651,18.95,17.506l77.589,266.549
		c-1.74,0.814-3.438,1.706-5.068,2.674c-8.354,4.984-15.061,11.979-19.578,20.147c-4.296,7.768-6.58,16.564-6.792,25.639h-0.042
		v1.384h0.042c0.17,7.08,1.673,13.89,4.296,20.095c4.202,9.916,11.182,18.313,19.986,24.264c8.778,5.943,19.476,9.433,30.852,9.424
		h249.569c7.352,0,13.312-5.96,13.312-13.312c0-7.352-5.96-13.321-13.312-13.321H187.594c-3.973,0-7.7-0.79-11.104-2.233
		c-5.111-2.156-9.492-5.79-12.566-10.358c-2.963-4.381-4.703-9.56-4.839-15.231c0.144-6.766,2.292-12.633,6.078-17.327
		c1.97-2.428,4.398-4.551,7.336-6.308c2.886-1.732,6.316-3.098,10.324-3.965l250.851-40.836
		c16.394-2.674,29.425-15.197,32.737-31.472l30.682-150.848l0.009-0.018c0.348-1.748,0.526-3.531,0.526-5.297
		C497.628,106.506,495.539,100.537,491.617,95.732z M440.312,263.441c-1.094,5.434-5.45,9.611-10.918,10.502l-239.661,39.011
		l-58.326-200.369h339.579l0.008,0.009L440.312,263.441z"/>
	<path class="st0" d="M218.412,444.785c-5.858-3.964-12.989-6.283-20.562-6.283c-5.043,0-9.899,1.028-14.297,2.896
		c-6.614,2.792-12.2,7.445-16.165,13.303c-3.956,5.841-6.283,12.972-6.283,20.546c0,5.043,1.036,9.908,2.904,14.314
		c2.793,6.606,7.437,12.2,13.295,16.156c5.85,3.956,12.973,6.291,20.546,6.283c5.043,0.008,9.916-1.028,14.314-2.896
		c6.605-2.801,12.191-7.436,16.148-13.295c3.973-5.858,6.3-12.989,6.282-20.562c0.009-5.043-1.018-9.9-2.886-14.297
		C228.905,454.336,224.27,448.75,218.412,444.785z M211.51,481.02c-1.113,2.64-3.014,4.924-5.374,6.52
		c-2.377,1.604-5.179,2.521-8.286,2.53c-2.072,0-3.99-0.416-5.756-1.163c-2.649-1.112-4.924-3.014-6.529-5.382
		c-1.605-2.378-2.521-5.171-2.521-8.278c0-2.072,0.407-3.99,1.154-5.756c1.121-2.649,3.013-4.933,5.382-6.529
		c2.377-1.604,5.17-2.521,8.269-2.53c2.08,0.009,4.007,0.416,5.773,1.163c2.641,1.12,4.925,3.005,6.52,5.382
		c1.596,2.378,2.522,5.162,2.531,8.27C212.673,477.327,212.248,479.246,211.51,481.02z"/>
	<path class="st0" d="M419.945,444.785c-5.858-3.964-12.99-6.283-20.563-6.283c-5.043,0-9.899,1.028-14.306,2.896
		c-6.613,2.792-12.2,7.445-16.156,13.303c-3.957,5.841-6.282,12.972-6.282,20.546c0,5.043,1.027,9.908,2.886,14.314
		c2.802,6.606,7.445,12.2,13.304,16.156c5.849,3.956,12.98,6.291,20.554,6.283c5.043,0.008,9.908-1.028,14.314-2.896
		c6.605-2.801,12.192-7.436,16.148-13.295c3.956-5.858,6.292-12.989,6.283-20.562c0-5.043-1.019-9.9-2.886-14.297
		C430.438,454.336,425.803,448.75,419.945,444.785z M413.034,481.02c-1.112,2.64-3.006,4.924-5.382,6.52
		c-2.377,1.604-5.162,2.521-8.269,2.53c-2.072,0-3.99-0.416-5.756-1.163c-2.649-1.112-4.933-3.014-6.537-5.382
		c-1.596-2.378-2.514-5.171-2.514-8.278c0-2.072,0.408-3.99,1.155-5.756c1.12-2.649,3.005-4.933,5.383-6.529
		c2.377-1.604,5.162-2.521,8.269-2.53c2.072,0.009,3.999,0.416,5.765,1.163c2.64,1.12,4.932,3.005,6.529,5.382
		c1.596,2.378,2.512,5.162,2.521,8.27C414.188,477.327,413.782,479.246,413.034,481.02z"/>
</g>
</svg>
