<?xml version="1.0" encoding="utf-8"?>
<!-- Generator: Adobe Illustrator 15.1.0, SVG Export Plug-In . SVG Version: 6.00 Build 0)  -->
<!DOCTYPE svg PUBLIC "-//W3C//DTD SVG 1.1//EN" "http://www.w3.org/Graphics/SVG/1.1/DTD/svg11.dtd">
<svg version="1.1" id="_x32_" xmlns="http://www.w3.org/2000/svg" xmlns:xlink="http://www.w3.org/1999/xlink" x="0px" y="0px"
	 width="512px" height="512px" viewBox="0 0 512 512" style="enable-background:new 0 0 512 512;" xml:space="preserve">
<style type="text/css">
<![CDATA[
	.st0{fill:#4B4B4B;}
]]>
</style>
<g>
	<path class="st0" d="M400.688,2.031v54.563H298.703V0h-85.406v56.594H111.313V1.031H25.922v55.563v34.203V512h460.156V91.813
		V56.594V2.031H400.688z M298.875,266.688c1.406-6.781,4.078-13.406,6.469-18.891c2.406-5.516,4.125-9.813,5.141-14.109
		c1.047-4.25,1.484-8.563,1.594-12.984c0.141-9.016-0.766-17.156-2.125-23.375c-1.328-6.266-3.359-11.672-4.266-16.328
		c-0.922-4.625-0.406-8.063,2.063-9.625c2.484-1.547,5.672-0.906,9.672,1.75c3.922,2.656,9.203,7.859,13.453,16.328
		c2.078,4.172,3.813,9.016,5.047,14.172c1.234,5.219,2.016,10.594,2.344,16.594c0.297,5.984-0.047,12.625-1.516,19.422
		c-1.406,6.766-4.078,13.391-6.453,18.859c-2.422,5.516-4.125,9.813-5.141,14.094c-1.031,4.281-1.469,8.594-1.578,13
		c-0.141,9.031,0.766,17.172,2.125,23.375c1.328,6.297,3.359,11.703,4.266,16.344c0.938,4.625,0.406,8.047-2.094,9.625
		c-2.469,1.563-5.625,0.906-9.656-1.75c-3.906-2.656-9.188-7.859-13.422-16.313c-2.109-4.188-3.828-9.031-5.047-14.188
		c-1.25-5.219-2.063-10.578-2.375-16.594C297.094,280.125,297.406,273.469,298.875,266.688z M239.766,269.406
		c1.234-7.375,3.797-14.719,6.141-20.969c2.375-6.313,4.125-11.375,5.125-16.469c1.047-5.094,1.438-10.219,1.469-15.313
		c0-10.422-1-19.844-2.516-27.125c-1.453-7.344-3.609-13.5-4.547-18.641c-0.969-5.109-0.438-8.734,2.125-10.188
		c2.563-1.438,5.844-0.391,9.969,2.906c4.063,3.281,9.438,9.391,13.625,18.719c4.203,9.344,6.75,20.797,7.531,33.594
		c0.359,6.484,0.141,13.625-1.156,21c-1.266,7.344-3.813,14.719-6.172,20.953c-2.375,6.281-4.109,11.375-5.109,16.469
		c-1.031,5.078-1.406,10.188-1.453,15.313c-0.016,10.422,0.984,19.828,2.516,27.109c1.453,7.375,3.594,13.516,4.531,18.672
		c0.969,5.094,0.422,8.734-2.125,10.188c-2.563,1.438-5.859,0.375-9.969-2.922c-4.078-3.297-9.406-9.406-13.625-18.719
		c-4.219-9.359-6.75-20.797-7.531-33.609C238.219,283.906,238.469,276.75,239.766,269.406z M179.531,266.688
		c1.406-6.781,4.063-13.406,6.469-18.891c2.391-5.516,4.109-9.813,5.125-14.109c1.047-4.25,1.5-8.563,1.594-12.969
		c0.125-9.031-0.766-17.172-2.125-23.391c-1.313-6.266-3.344-11.672-4.25-16.328c-0.938-4.625-0.406-8.063,2.063-9.625
		c2.469-1.547,5.656-0.906,9.656,1.75c3.922,2.656,9.219,7.859,13.438,16.328c2.094,4.172,3.844,9.016,5.063,14.188
		c1.219,5.203,2.031,10.563,2.344,16.578c0.281,5.984-0.031,12.625-1.5,19.422c-1.406,6.766-4.094,13.391-6.469,18.859
		c-2.406,5.516-4.125,9.813-5.141,14.094c-1.031,4.281-1.469,8.594-1.578,13c-0.125,9.031,0.781,17.172,2.125,23.375
		c1.328,6.297,3.359,11.703,4.281,16.344c0.906,4.625,0.406,8.047-2.078,9.625c-2.484,1.563-5.672,0.906-9.672-1.75
		c-3.906-2.656-9.188-7.859-13.438-16.313c-2.109-4.188-3.828-9.031-5.063-14.188c-1.219-5.219-2.031-10.578-2.344-16.594
		C177.75,280.125,178.063,273.469,179.531,266.688z M405.375,348.313c-4.313,11.5-11.828,21.438-21.281,29.953
		c-14.234,12.75-33.031,22.563-54.844,29.453c-21.844,6.844-46.75,10.688-73.25,10.688s-51.422-3.844-73.25-10.688
		c-21.813-6.891-40.594-16.703-54.844-29.453c-9.453-8.516-16.969-18.453-21.281-29.953c-2.469-6.547-3.813-13.578-3.813-20.766
		c0-6.953,1.219-13.625,3.344-19.734c2.156-6.094,8.078-13.156,12.438-17.359c10.281-9.984,21.344-14.953,26.766-17.875
		c4.047-2.422,9.172-0.953,11.484,3.266c2.297,4.234,0.781,9.406-3.109,12.063c-25.641,17.5-29.891,38.453-11.328,60.359
		c5.547,6.516,12.953,11.703,23.813,17.797c17.797,9.953,54.5,18.734,89.781,18.688c35.266,0.047,71.984-8.734,89.781-18.688
		c10.875-6.094,18.266-11.281,23.813-17.797c18.547-21.906,14.328-42.859-11.313-60.359c-3.906-2.656-5.422-7.828-3.125-12.063
		c2.313-4.219,7.453-5.688,11.484-3.266c5.422,2.922,16.484,7.891,26.766,17.875c4.359,4.203,10.281,11.266,12.438,17.359
		c2.125,6.109,3.359,12.781,3.344,19.734C409.203,334.734,407.828,341.766,405.375,348.313z"/>
</g>
</svg>
