<?xml version="1.0" encoding="utf-8"?>
<!-- Generator: Adobe Illustrator 18.0.0, SVG Export Plug-In . SVG Version: 6.00 Build 0)  -->
<!DOCTYPE svg PUBLIC "-//W3C//DTD SVG 1.1//EN" "http://www.w3.org/Graphics/SVG/1.1/DTD/svg11.dtd">
<svg version="1.1" id="_x32_" xmlns="http://www.w3.org/2000/svg" xmlns:xlink="http://www.w3.org/1999/xlink" x="0px" y="0px"
	 viewBox="0 0 512 512" style="enable-background:new 0 0 512 512;" xml:space="preserve">
<style type="text/css">
	.st0{fill:#4B4B4B;}
</style>
<g>
	<path class="st0" d="M339.531,149.85c-7.308-7.426-16.324-13.273-27.039-17.536c-10.722-4.261-22.781-6.398-36.174-6.398H175.467
		v260.168h50.789v-97.927h50.062c13.392,0,25.451-2.13,36.174-6.394c10.715-4.261,19.731-10.108,27.039-17.54
		c7.307-7.43,12.91-16.08,16.809-25.943c3.894-9.866,5.846-20.28,5.846-31.242c0-10.965-1.951-21.378-5.846-31.242
		C352.442,165.93,346.838,157.286,339.531,149.85z M301.348,232.799c-6.703,6.457-15.894,9.682-27.588,9.682h-47.504v-71.252h47.504
		c11.694,0,20.885,3.288,27.588,9.863c6.697,6.578,10.047,15.228,10.047,25.946C311.394,217.758,308.045,226.346,301.348,232.799z"
		/>
	<path class="st0" d="M256,0C114.613,0,0,114.615,0,256s114.613,256,256,256c141.383,0,256-114.615,256-256S397.383,0,256,0z
		 M256,448c-105.871,0-192-86.131-192-192S150.129,64,256,64c105.867,0,192,86.131,192,192S361.867,448,256,448z"/>
</g>
</svg>
