<?xml version="1.0" encoding="utf-8"?>
<!-- Generator: Adobe Illustrator 18.1.1, SVG Export Plug-In . SVG Version: 6.00 Build 0)  -->
<!DOCTYPE svg PUBLIC "-//W3C//DTD SVG 1.1//EN" "http://www.w3.org/Graphics/SVG/1.1/DTD/svg11.dtd">
<svg version="1.1" id="_x32_" xmlns="http://www.w3.org/2000/svg" xmlns:xlink="http://www.w3.org/1999/xlink" x="0px" y="0px"
	 viewBox="0 0 512 512" style="enable-background:new 0 0 512 512;" xml:space="preserve">
<style type="text/css">
	.st0{fill:#4B4B4B;}
</style>
<g>
	<path class="st0" d="M450.803,410.22c0-10.54-4.455-20.817-12.531-28.262c-8.084-7.497-19.404-11.78-32.198-11.982h0.022
		c-11.359-0.233-20.471-3.103-28.397-7.385c-11.779-6.37-20.682-16.31-26.436-24.776c-0.218-0.323-0.391-0.608-0.601-0.924
		c5.07-4.185,8.174-9.428,9.804-14.101l-0.016,0.03c2.043-5.77,2.36-10.968,2.382-14.416v-0.075
		c-0.008-1.616-0.083-2.817-0.173-3.764l-0.226-70.099c14.883-1.78,27.617-5.972,37.6-12.921l0.008-0.008
		c6.641-4.643,12.042-10.503,15.716-17.287c3.673-6.776,5.521-14.326,5.521-21.959c0-6.078-1.142-12.132-3.253-17.962l-0.008-0.023
		c-4.966-13.537-14.657-29.058-27.03-46.089c-18.616-25.437-43.392-53.526-67.244-75.921c-11.945-11.186-23.627-20.96-34.542-28.338
		c-5.462-3.688-10.773-6.799-16.039-9.18l-0.03-0.008c-4.012-1.788-8.144-3.17-12.516-3.891C259.061,0.353,257.447,0,255.756,0
		h-0.082c-8.128,0.105-15.288,2.982-22.237,6.559l-0.06,0.03c-12.291,6.506-25.52,16.783-39.411,29.299
		c-20.78,18.766-42.754,42.603-61.137,65.734c-9.195,11.577-17.473,22.965-24.258,33.543c-6.776,10.615-12.11,20.344-15.37,29.389
		c-2.074,5.8-3.2,11.802-3.2,17.828c0,7.64,1.84,15.198,5.544,21.989c5.544,10.232,14.92,18.203,26.616,23.357
		c7.874,3.486,16.888,5.679,26.85,6.806v70.047c-0.083,0.886-0.158,2.103-0.158,3.696v0.075c0.044,4.395,0.473,12.305,5.146,20.374
		l-0.076-0.136l0.098,0.18c1.706,2.885,4.057,5.725,7.054,8.181c-2.148,3.254-4.718,6.754-7.813,10.225
		c-5.213,5.86-11.712,11.524-19.487,15.709c-7.82,4.199-16.814,7.009-27.984,7.264h0.016c-12.787,0.241-24.071,4.56-32.131,12.058
		l-0.399,0.375l0.421-0.39c-8.06,7.444-12.501,17.722-12.501,28.24c-0.008,10.833,4.734,21.53,13.448,29.299l-0.068-0.068
		l0.135,0.128c0.015,0,0.022,0.014,0.03,0.022l-0.023-0.022l0,0c8.752,7.805,20.938,12.365,35.332,13.086h-0.038
		c1.532,0.091,3.028,0.121,4.478,0.121c8.316-0.015,16.527-1.21,24.536-3.373c-4.11,6.701-6.228,14.191-6.213,21.478v0.368h0.008
		c0.045,10.014,3.5,19.713,9.939,27.316l-0.023-0.022c6.341,7.543,16.054,12.936,27.346,13.177l0.376,0.045h0.353h0.098h0.045
		c2.862-0.007,5.747-0.39,8.609-1.036h0.346l0.954-0.248c16.084-4.192,29.426-14.123,40.41-26.166
		c15.19-16.724,26.549-38.029,34.791-59.086c5.258,13.514,11.727,27.098,19.802,39.561c6.822,10.518,14.672,20.231,23.815,28.254
		c9.135,8.001,19.72,14.394,31.785,17.474c3.276,0.834,6.574,1.262,9.827,1.262h0.09l0.188-0.008v-0.008
		c11.539-0.075,21.456-5.544,27.894-13.207l-0.015,0.015c6.446-7.625,9.894-17.354,9.924-27.376v-0.293
		c0.015-7.324-2.126-14.867-6.288-21.598c7.926,2.118,16.054,3.29,24.273,3.306c1.6,0,3.162-0.053,4.695-0.136
		c14.379-0.752,26.534-5.341,35.264-13.132l-0.015,0.007C446.055,431.804,450.811,421.069,450.803,410.22z M421.948,422.346
		c-4.087,3.651-10.818,6.746-21.125,7.318c-1.142,0.06-2.3,0.09-3.456,0.09c-16.843,0.014-34.662-6.671-50.454-18.42
		c-15.799-11.72-29.464-28.405-38.111-47.697c-1.69-3.772-6.07-5.537-9.902-3.989c-3.823,1.548-5.754,5.86-4.35,9.744
		c0.06,0.166,6.085,16.88,15.408,35.789c4.666,9.458,10.157,19.473,16.25,28.33c6.146,8.85,12.742,16.617,20.608,21.56
		c6.933,4.387,9.383,10.217,9.48,16.325c0.015,4.635-1.713,9.277-4.448,12.471c-2.787,3.208-6.19,5.018-10.554,5.056
		c-1.262,0-2.63-0.166-4.125-0.541c-10.262-2.6-20.163-9.421-29.201-19.278c-13.56-14.732-24.813-36.014-32.446-56.794
		c-7.67-20.72-11.75-41.176-11.742-53.279c-0.008-2.223-0.976-4.342-2.667-5.8l-0.33-0.285c-2.284-1.969-5.484-2.426-8.226-1.172
		c-2.742,1.254-4.493,3.981-4.493,6.994c0.016,8.031-1.735,19.894-5.183,32.965c-5.161,19.645-14.123,42.212-25.963,60.558
		c-5.912,9.18-12.531,17.293-19.6,23.522c-7.077,6.242-14.537,10.555-22.238,12.538h0.023c-1.526,0.391-2.915,0.548-4.192,0.548
		c-4.364-0.03-7.775-1.841-10.562-5.056c-2.742-3.192-4.47-7.835-4.455-12.471c0.098-6.085,2.532-11.899,9.436-16.302
		c7.843-4.966,14.416-12.756,20.531-21.62c9.09-13.312,16.85-29.232,22.454-41.943c5.582-12.704,8.963-22.154,9.001-22.274
		c1.389-3.892-0.548-8.189-4.38-9.729c-3.839-1.532-8.211,0.241-9.894,4.02c-8.594,19.352-22.244,36.112-38.043,47.884
		c-15.799,11.802-33.634,18.526-50.506,18.511c-1.105,0-2.186-0.03-3.261-0.083c-10.322-0.541-17.068-3.629-21.156-7.272
		c-4.094-3.674-5.77-7.948-5.792-12.132c0.008-4.072,1.645-8.091,5.101-11.314c3.455-3.193,8.857-5.702,16.903-5.89
		c15.152-0.315,28.186-4.395,38.952-10.299c16.16-8.873,27.248-21.652,34.37-32.139c7.122-10.502,10.322-18.804,10.472-19.194
		c0.902-2.358,0.586-5.033-0.841-7.106c-1.428-2.081-3.816-3.336-6.341-3.336c-3.125-0.016-4.966-0.631-6.213-1.322
		c-1.818-1.044-2.885-2.554-3.719-4.816c-0.796-2.201-1.052-4.912-1.036-6.738c0-0.706,0.03-1.285,0.052-1.653l0.038-0.375v-0.016
		l0.068-1.014v-85.064c0-2.029-0.819-4.012-2.254-5.439c-1.435-1.436-3.411-2.254-5.439-2.254c-18.639,0.014-31.846-4.08-39.9-9.729
		c-4.042-2.832-6.844-6.002-8.677-9.375c-1.825-3.381-2.735-7.002-2.742-10.976c0-3.14,0.586-6.506,1.848-10.052
		c3.411-9.668,12.298-24.611,24.115-40.786c17.714-24.356,42.04-52.031,64.75-73.344c11.344-10.653,22.304-19.728,31.635-25.949
		c4.665-3.118,8.916-5.514,12.463-7.046c2.742-1.202,5.034-1.818,6.634-2.036l0.886,0.218c2.268,0.045,6.739,1.412,12.11,4.342
		c9.474,5.079,21.817,14.477,34.813,26.226c19.533,17.632,40.756,40.56,58.237,62.482c8.738,10.953,16.55,21.666,22.741,31.282
		c6.198,9.6,10.765,18.195,13.012,24.453c1.285,3.553,1.878,6.949,1.878,10.119c-0.007,3.966-0.909,7.573-2.734,10.96
		c-2.743,5.041-7.686,9.722-15.664,13.297c-7.948,3.553-18.879,5.875-32.822,5.913c-4.252,0.014-7.685,3.471-7.67,7.715l0.27,85.057
		l0.068,1.022l0.008,0.007c0.022,0.218,0.098,1.007,0.098,2.104c0.038,2.48-0.511,6.393-1.969,8.73
		c-0.728,1.202-1.532,2.058-2.772,2.764c-1.247,0.698-3.088,1.314-6.19,1.338c-2.524,0.007-4.906,1.269-6.326,3.35
		c-1.427,2.081-1.735,4.762-0.826,7.114c0.218,0.511,5.845,15.1,19.052,30.163c6.618,7.52,15.16,15.168,25.956,21.043
		c10.773,5.874,23.822,9.916,38.982,10.187l0.142-7.693l-0.136,7.693c8.054,0.158,13.47,2.659,16.941,5.852
		c3.456,3.216,5.101,7.234,5.116,11.314C427.695,414.398,426.027,418.665,421.948,422.346z M346.643,339.798l-0.308,0.173
		c0.007-0.008,0.014-0.008,0.022-0.015c0.008-0.007,0.008-0.007,0.015-0.007L346.643,339.798z"/>
	<circle class="st0" cx="218.494" cy="256.755" r="11.539"/>
	<circle class="st0" cx="293.499" cy="256.755" r="11.539"/>
</g>
</svg>
