<?xml version="1.0" encoding="utf-8"?>
<!-- Generator: Adobe Illustrator 18.1.1, SVG Export Plug-In . SVG Version: 6.00 Build 0)  -->
<!DOCTYPE svg PUBLIC "-//W3C//DTD SVG 1.1//EN" "http://www.w3.org/Graphics/SVG/1.1/DTD/svg11.dtd">
<svg version="1.1" id="_x32_" xmlns="http://www.w3.org/2000/svg" xmlns:xlink="http://www.w3.org/1999/xlink" x="0px" y="0px"
	 viewBox="0 0 512 512" style="enable-background:new 0 0 512 512;" xml:space="preserve">
<style type="text/css">
	.st0{fill:#4B4B4B;}
</style>
<g>
	<rect x="158.946" y="417.234" class="st0" width="300.107" height="27.383"/>
	<path class="st0" d="M239.154,454.951c-4.972-3.362-11.022-5.34-17.449-5.334c-4.275,0-8.405,0.87-12.137,2.457
		c-5.624,2.377-10.362,6.319-13.718,11.29c-3.362,4.963-5.333,11.021-5.333,17.448c0,4.275,0.876,8.405,2.456,12.138
		c2.37,5.616,6.312,10.355,11.282,13.717c4.971,3.362,11.022,5.34,17.449,5.334c4.282,0,8.406-0.87,12.144-2.457
		c5.609-2.377,10.355-6.312,13.718-11.29c3.355-4.963,5.333-11.021,5.333-17.442c0-4.282-0.877-8.413-2.457-12.144
		C248.074,463.059,244.118,458.313,239.154,454.951z M232.922,485.544c-0.912,2.174-2.471,4.051-4.42,5.362
		c-1.949,1.319-4.246,2.073-6.797,2.08c-1.71,0-3.282-0.34-4.732-0.956c-2.174-0.921-4.051-2.472-5.362-4.42
		c-1.319-1.957-2.072-4.247-2.079-6.798c0-1.71,0.34-3.289,0.956-4.738c0.913-2.174,2.471-4.051,4.42-5.363
		c1.957-1.318,4.246-2.072,6.797-2.072c1.703,0,3.283,0.333,4.739,0.957c2.174,0.913,4.043,2.463,5.362,4.42
		c1.312,1.949,2.065,4.239,2.065,6.797C233.871,482.515,233.538,484.094,232.922,485.544z"/>
	<path class="st0" d="M421.722,454.951c-4.964-3.362-11.007-5.34-17.442-5.334c-4.276,0-8.406,0.87-12.145,2.457
		c-5.608,2.377-10.347,6.319-13.709,11.29c-3.362,4.963-5.34,11.021-5.334,17.448c0,4.275,0.87,8.405,2.457,12.138
		c2.369,5.616,6.311,10.355,11.282,13.717c4.971,3.362,11.028,5.34,17.449,5.334c4.282,0,8.405-0.87,12.144-2.457
		c5.608-2.377,10.355-6.312,13.717-11.29c3.362-4.963,5.334-11.021,5.334-17.442c0-4.282-0.877-8.413-2.457-12.144
		C430.641,463.059,426.7,458.313,421.722,454.951z M415.504,485.544c-0.921,2.174-2.471,4.051-4.42,5.362
		c-1.956,1.319-4.246,2.073-6.804,2.08c-1.703,0-3.282-0.34-4.732-0.956c-2.166-0.921-4.043-2.472-5.37-4.42
		c-1.304-1.957-2.058-4.247-2.065-6.798c0-1.71,0.34-3.289,0.949-4.738c0.921-2.174,2.478-4.051,4.421-5.363
		c1.956-1.318,4.246-2.072,6.797-2.072c1.71,0,3.282,0.333,4.738,0.957c2.174,0.913,4.05,2.463,5.362,4.42
		c1.319,1.949,2.073,4.239,2.073,6.797C416.454,482.515,416.113,484.094,415.504,485.544z"/>
	<path class="st0" d="M252.168,408.532l3.043-72.273h114.12l1.514,72.273h60.868l9.13-108.786h0.696v-29.673h9.883v44.129h36.586
		c0-109.554-21.376-142.264-80.642-142.264H300.406c-5-23.818-11.463-45.941-19.586-65.882
		c-6.529-16.029-14.13-30.644-22.912-43.586c-13.174-19.413-29.043-35.072-47.898-45.854C191.184,5.826,169.417-0.014,144.838,0
		c-21.839-0.007-39.803,4.384-54.396,11.29C79.492,16.47,70.456,23.043,63.065,30.137C51.971,40.782,44.566,52.578,39.718,62.708
		c-2.434,5.072-4.232,9.739-5.536,13.652c-0.551,1.674-1.007,3.203-1.398,4.58l-2.797,0.203c-2.413,0.174-4.529,1.681-5.478,3.92
		c-0.949,2.224-0.572,4.804,0.979,6.666l24.637,29.637c0.333,0.398,0.717,0.746,1.13,1.043c0.275,3.58,0.797,7.261,1.572,11.072
		c1.594,7.775,15.978,70.744,15.978,70.744h49.056c0,0,2.275-49.056,2.696-52.832c0.76-6.847,5.55-11.6,9.891,0l62.382,257.138
		H252.168z M61.602,76.252l-14.724,1.072c0.753-2.297,1.746-4.986,3.043-7.906c2.124-4.797,5.036-10.232,8.964-15.652
		c0.022-0.058,0.065-0.102,0.088-0.131l10.963,13.202C66.819,69.65,64.014,72.788,61.602,76.252z M90.057,124.004
		c-5.456,0-9.884-4.428-9.884-9.891c0-5.456,4.428-9.884,9.884-9.884c5.464,0,9.891,4.428,9.891,9.884
		C99.948,119.576,95.52,124.004,90.057,124.004z M79.13,58.955l-11.761-14.18c5.5-6.543,12.587-12.833,21.71-17.804
		c0.652-0.355,1.334-0.71,2.021-1.066l9.898,22.26C93.057,50.549,85.571,54.144,79.13,58.955z M117.216,43.434
		c-1.384,0.232-2.754,0.507-4.116,0.812l-10.29-23.151c8.877-3.732,19.449-6.246,32.093-6.783l0.834,28.275
		C129.809,42.078,123.628,42.346,117.216,43.434z M285.131,169.278H253.32c-1.753-5.312-3.587-10.464-5.506-15.456l31.68-7.218
		C281.58,153.887,283.457,161.459,285.131,169.278z M265.298,106.316c3.898,8.797,7.362,18.246,10.434,28.268l-32.173,7.333
		c-2.942-7.254-6.065-14.123-9.377-20.572l29.848-17.833C264.45,104.439,264.878,105.374,265.298,106.316z M237.248,59.172
		c7.848,9.087,14.768,19.826,20.79,31.985l-30.05,17.956c-4.297-7.855-8.898-15.021-13.811-21.419L237.248,59.172z M174.083,53.093
		c-7.362-4.42-15.21-7.442-23.557-8.869l-0.855-29.116c13.347,0.065,25.376,2.37,36.26,6.667L174.083,53.093z M198.503,27.434
		c0.652,0.304,1.312,0.608,1.956,0.927c9.602,4.775,18.275,11.202,26.115,19.151c0.471,0.479,0.935,0.972,1.406,1.457
		l-22.854,28.253c-5.854-6.97-12.116-12.876-18.811-17.579L198.503,27.434z"/>
</g>
</svg>
