<?xml version="1.0" encoding="utf-8"?>
<!-- Generator: Adobe Illustrator 15.1.0, SVG Export Plug-In . SVG Version: 6.00 Build 0)  -->
<!DOCTYPE svg PUBLIC "-//W3C//DTD SVG 1.1//EN" "http://www.w3.org/Graphics/SVG/1.1/DTD/svg11.dtd">
<svg version="1.1" id="_x32_" xmlns="http://www.w3.org/2000/svg" xmlns:xlink="http://www.w3.org/1999/xlink" x="0px" y="0px"
	 width="512px" height="512px" viewBox="0 0 512 512" style="enable-background:new 0 0 512 512;" xml:space="preserve">
<style type="text/css">
<![CDATA[
	.st0{fill:#4B4B4B;}
]]>
</style>
<g>
	<path class="st0" d="M456.109,182c0-21.984-5.328-41.078-10-57.906c-1.344-4.734-2.656-9.438-3.813-14.156
		c-9.625-39.406-17.984-64.469-26.063-88.719C413.828,14.063,411.531,7.125,409.25,0h-40.297
		c11.172,36.719,22.375,63.438,36,119.078c4.984,20.391,12.688,40.609,12.688,62.922c0,89.281-72.359,161.656-161.641,161.656
		c-89.266,0-161.641-72.375-161.641-161.656c0-22.313,7.703-42.531,12.703-62.922C120.672,63.438,131.891,36.719,143.047,0H102.75
		c-2.266,7.125-4.594,14.078-6.984,21.25c-8.078,24.25-16.422,49.281-26.078,88.688c-1.141,4.719-2.469,9.422-3.781,14.156
		C61.219,140.922,55.891,160.016,55.891,182c0,103.031,78.281,188.094,178.469,198.938v87.781h-56.078V512h155.438v-43.281h-56.078
		v-87.781C377.844,370.094,456.109,285.031,456.109,182z"/>
	<path class="st0" d="M130.75,142.172c-3.891,13.906-7.563,27.047-7.563,39.828c0,73.234,59.578,132.813,132.813,132.813
		S388.813,255.234,388.813,182c0-12.781-3.672-25.922-7.547-39.844c-1.5-5.406-3.016-10.813-4.328-16.219
		c-1.766-7.203-3.484-13.891-5.172-20.188H140.234c-1.688,6.297-3.406,12.984-5.156,20.172
		C133.75,131.344,132.25,136.75,130.75,142.172z"/>
</g>
</svg>
