<?xml version="1.0" encoding="utf-8"?>
<!-- Generator: Adobe Illustrator 18.1.1, SVG Export Plug-In . SVG Version: 6.00 Build 0)  -->
<!DOCTYPE svg PUBLIC "-//W3C//DTD SVG 1.1//EN" "http://www.w3.org/Graphics/SVG/1.1/DTD/svg11.dtd">
<svg version="1.1" id="_x32_" xmlns="http://www.w3.org/2000/svg" xmlns:xlink="http://www.w3.org/1999/xlink" x="0px" y="0px"
	 viewBox="0 0 512 512" style="enable-background:new 0 0 512 512;" xml:space="preserve">
<style type="text/css">
	.st0{fill:#4B4B4B;}
</style>
<g>
	<path class="st0" d="M395.903,418.3c-2.939,0-26.607,26.614-26.607,48.227c0,14.698,11.912,26.614,26.607,26.614
		c14.694,0,26.606-11.916,26.606-26.614C422.51,442.414,398.844,418.3,395.903,418.3z M395.903,484.143
		c-5.877,0-10.637-4.76-10.637-10.637c0-8.646,9.461-19.283,10.637-19.283c1.176,0,10.637,9.642,10.637,19.283
		C406.54,479.382,401.776,484.143,395.903,484.143z"/>
	<path class="st0" d="M209.369,418.3c-2.942,0-26.607,26.614-26.607,48.227c0,14.698,11.912,26.614,26.607,26.614
		s26.607-11.916,26.607-26.614C235.976,442.414,212.308,418.3,209.369,418.3z M209.369,484.143c-5.873,0-10.637-4.76-10.637-10.637
		c0-8.646,9.461-19.283,10.637-19.283c1.176,0,10.637,9.642,10.637,19.283C220.006,479.382,215.246,484.143,209.369,484.143z"/>
	<path class="st0" d="M302.638,418.3c-2.942,0-26.61,26.614-26.61,48.227c0,14.698,11.915,26.614,26.61,26.614
		c14.692,0,26.607-11.916,26.607-26.614C329.245,442.414,305.576,418.3,302.638,418.3z M302.638,484.143
		c-5.876,0-10.64-4.76-10.64-10.637c0-8.646,9.465-19.283,10.64-19.283c1.173,0,10.637,9.642,10.637,19.283
		C313.275,479.382,308.511,484.143,302.638,484.143z"/>
	<path class="st0" d="M116.101,418.3c-2.939,0-26.608,26.614-26.608,48.227c0,14.698,11.912,26.614,26.608,26.614
		c14.694,0,26.61-11.916,26.61-26.614C142.711,442.414,119.042,418.3,116.101,418.3z M116.101,484.143
		c-5.874,0-10.637-4.76-10.637-10.637c0-8.646,9.461-19.283,10.637-19.283s10.637,9.642,10.637,19.283
		C126.738,479.382,121.977,484.143,116.101,484.143z"/>
	<path class="st0" d="M485.764,175.004c-3.764,0-24.647,0-37.279,0v-12.262v-0.212v-23.746c0.004-7.261-1.48-14.254-4.16-20.589
		c-4.026-9.514-10.714-17.56-19.148-23.259c-8.43-5.707-18.675-9.048-29.584-9.041H279.238V67.686h7.098
		c13.487,0,24.417-10.934,24.417-24.425c0-13.476-10.93-24.403-24.417-24.403h-60.672c-13.487,0-24.417,10.926-24.417,24.403
		c0,13.491,10.93,24.425,24.417,24.425h7.099v18.209H116.407c-7.267,0-14.257,1.476-20.592,4.153
		c-9.511,4.026-17.559,10.722-23.262,19.155c-5.7,8.427-9.044,18.675-9.038,29.581v23.746v0.212v12.262c-12.632,0-33.514,0-37.279,0
		C11.746,175.004,0,186.75,0,201.236c0,14.494,11.746,26.233,26.236,26.233c12.862,0,30.432,7.784,37.279,23.294v50.148
		c-0.003,12.854,2.61,25.158,7.335,36.325c7.095,16.761,18.908,30.986,33.794,41.044c14.878,10.058,32.896,15.949,52.178,15.942
		h198.35c12.852,0.007,25.156-2.606,36.326-7.338c16.761-7.092,30.986-18.901,41.044-33.79c10.058-14.875,15.949-32.9,15.942-52.182
		v-50.148c6.848-15.51,24.417-23.294,37.279-23.294c14.49,0,26.236-11.739,26.236-26.233
		C512,186.75,500.254,175.004,485.764,175.004z M414.493,300.911c-0.007,8.257-1.66,15.99-4.654,23.089
		c-4.482,10.609-12.036,19.706-21.515,26.105c-9.503,6.407-20.78,10.115-33.151,10.115h-198.35c-8.257,0-15.991-1.652-23.079-4.648
		h-0.004c-10.616-4.485-19.72-12.036-26.116-21.514c-6.403-9.493-10.108-20.78-10.118-33.155V187.477h316.986V300.911z
		 M414.493,162.53H97.507v-23.746c0.003-2.684,0.522-5.079,1.479-7.36c1.41-3.348,3.843-6.287,6.866-8.328
		c3.069-2.048,6.54-3.2,10.566-3.221h279.174c2.674,0.014,5.075,0.53,7.353,1.484c3.355,1.412,6.3,3.856,8.335,6.88l-0.007-0.014
		c2.056,3.072,3.207,6.548,3.221,10.566V162.53z"/>
</g>
</svg>
