<?xml version="1.0" encoding="utf-8"?>
<!-- Generator: Adobe Illustrator 15.1.0, SVG Export Plug-In . SVG Version: 6.00 Build 0)  -->
<!DOCTYPE svg PUBLIC "-//W3C//DTD SVG 1.1//EN" "http://www.w3.org/Graphics/SVG/1.1/DTD/svg11.dtd">
<svg version="1.1" id="_x32_" xmlns="http://www.w3.org/2000/svg" xmlns:xlink="http://www.w3.org/1999/xlink" x="0px" y="0px"
	 width="512px" height="512px" viewBox="0 0 512 512" style="enable-background:new 0 0 512 512;" xml:space="preserve">
<style type="text/css">
<![CDATA[
	.st0{fill:#4B4B4B;}
]]>
</style>
<g>
	<path class="st0" d="M407.156,267.128c5.766-72.641-33.688-137.469-88.891-181.625c-28.297-22.625-39.359-47.609-43.609-65.375
		c-3.406-14.266-1.609-15.797-1.609-15.797c-0.156-1.703-1.219-3.172-2.75-3.875c-1.563-0.734-3.359-0.578-4.75,0.391
		c0,0-5.5,1.188-14.422,9.859c-20.344,19.75-43.359,52.703-28.203,97.75c16.281,48.344,7.672,58.453-0.844,57.797
		c-11.047-0.844-12.734-7.656-10.969-28.828c2.047-24.766-20.406-45.906-20.406-45.906s-34.891,55.469-62.094,95.141
		c-16.078,23.453-23.781,53.266-23.781,80.469h-0.547c0,83.625,67.797,151.438,151.438,151.438
		C339.375,418.566,407.156,350.753,407.156,267.128z M255.984,375.925c-46.125,0-83.547-37.406-83.547-83.547
		c0-15.703,4.359-30.406,11.891-42.953c6.5,24.156,28.547,41.953,54.766,41.953c31.297,0,56.688-25.375,56.688-56.672
		c0-5.984-0.938-11.75-2.656-17.156c27.5,13.672,46.406,42.031,46.406,74.828C339.531,338.519,302.141,375.925,255.984,375.925z"/>
	<path class="st0" d="M196.531,419.332l-74.469,23.109c24.172,4.453,42.563,25.656,42.563,51.094c0,2.203-0.266,4.406-0.547,6.594
		l76.766-55.984C240.844,444.145,228.438,421.098,196.531,419.332z"/>
	<path class="st0" d="M102.563,452.66c-24.813,0-44.922,20.094-44.922,44.906c0,5.047,0.875,9.906,2.422,14.438h84.984
		c1.531-4.531,2.406-9.391,2.406-14.438C147.453,472.754,127.359,452.66,102.563,452.66z"/>
	<path class="st0" d="M389.938,442.441l-74.469-23.109c-31.906,1.766-44.313,24.813-44.313,24.813l76.766,55.984
		c-0.266-2.188-0.531-4.391-0.531-6.594C347.391,468.098,365.75,446.895,389.938,442.441z"/>
	<path class="st0" d="M409.438,452.66c-24.797,0-44.891,20.094-44.891,44.906c0,5.047,0.859,9.906,2.406,14.438h84.984
		c1.547-4.531,2.422-9.391,2.422-14.438C454.359,472.754,434.266,452.66,409.438,452.66z"/>
</g>
</svg>
